# xmcd CD database file
#
# Track frame offsets:
#	150
#	22584
#	45069
#	67778
#	82730
#	91534
#	106175
#	136517
#	155491
#	188916
#	220029
#	235273
#	260920
#	277259
#	296482
#
# Disc length: 4334 seconds
#
# Revision: 0
# Processed by: cddbd v1.5PL3 Copyright (c) Steve Scherf et al.
# Submitted via: CDex 1.50beta10
#
DISCID=b410ec0f
DTITLE=Various Artist - Blue Moon
DYEAR=1993
DGENRE=Jazz
TTITLE0=Bob Belden_Sister Moon
TTITLE1=Greg Olsby_Black Moon
TTITLE2=Lou Donaldson_Polkadots And Moonbeams
TTITLE3=Johnny Smith_Moonlight In Vermont
TTITLE4=Julie London_No Moon At All
TTITLE5=Wynton Kelly_Blue Moon
TTITLE6=Carmell Jones_Full Moon And Empty Arms
TTITLE7=Kenny Drew_It´S Only A Papermoon
TTITLE8=Diana Reeves_How High The Moon
TTITLE9=Dizzy Reece_I Wished On The Moon
TTITLE10=Miles Davis_Moon Dreams
TTITLE11=Grant Green_Moon River
TTITLE12=Nat King Cole_Fly Me To The Moon
TTITLE13=Hoagy Carmichael_Winter Moon
TTITLE14=Benny Green_Beautiful Moons Ago
EXTD=YEAR: 1993
EXTT0=
EXTT1=
EXTT2=
EXTT3=
EXTT4=
EXTT5=
EXTT6=
EXTT7=
EXTT8=
EXTT9=
EXTT10=
EXTT11=
EXTT12=
EXTT13=
EXTT14=
PLAYORDER=
